<mxfile host="app.diagrams.net" modified="2023-09-17T02:01:46.538Z" agent="Mozilla/5.0 (X11; Linux x86_64; rv:109.0) Gecko/20100101 Firefox/117.0" etag="5PSk9u7gX3WKxEmK6i1S" version="21.7.5" type="github">
  <diagram id="C5RBs43oDa-KdzZeNtuy" name="Page-1">
    <mxGraphModel dx="563" dy="594" grid="1" gridSize="10" guides="1" tooltips="1" connect="1" arrows="1" fold="1" page="1" pageScale="1" pageWidth="827" pageHeight="1169" math="0" shadow="0">
      <root>
        <mxCell id="WIyWlLk6GJQsqaUBKTNV-0" />
        <mxCell id="WIyWlLk6GJQsqaUBKTNV-1" parent="WIyWlLk6GJQsqaUBKTNV-0" />
        <mxCell id="6UUb83-wT3MryLMKem0V-0" value="Dados" style="shape=folder;fontStyle=1;spacingTop=0;tabWidth=120;tabHeight=20;tabPosition=left;html=1;whiteSpace=wrap;align=left;verticalAlign=top;labelPosition=center;verticalLabelPosition=middle;horizontal=1;spacing=0;spacingLeft=2;fillColor=none;rounded=0;" parent="WIyWlLk6GJQsqaUBKTNV-1" vertex="1">
          <mxGeometry x="80" y="60" width="600" height="300" as="geometry" />
        </mxCell>
        <mxCell id="MjpjkHj3X75M_pt7Rw3X-8" value="- emailsEnviados" style="text;html=1;align=center;verticalAlign=middle;resizable=0;points=[];autosize=1;strokeColor=none;fillColor=none;fontSize=10;" parent="WIyWlLk6GJQsqaUBKTNV-1" vertex="1">
          <mxGeometry x="300" y="123" width="100" height="30" as="geometry" />
        </mxCell>
        <mxCell id="MjpjkHj3X75M_pt7Rw3X-9" value="- emailsRecebidos" style="text;html=1;align=center;verticalAlign=middle;resizable=0;points=[];autosize=1;strokeColor=none;fillColor=none;fontSize=10;" parent="WIyWlLk6GJQsqaUBKTNV-1" vertex="1">
          <mxGeometry x="295" y="163" width="110" height="30" as="geometry" />
        </mxCell>
        <mxCell id="6UUb83-wT3MryLMKem0V-2" value="&lt;div&gt;Negocio&lt;/div&gt;" style="shape=folder;fontStyle=1;spacingTop=0;tabWidth=120;tabHeight=20;tabPosition=left;html=1;whiteSpace=wrap;align=left;verticalAlign=top;labelPosition=center;verticalLabelPosition=middle;horizontal=1;spacing=0;spacingLeft=2;fillColor=none;rounded=0;" parent="WIyWlLk6GJQsqaUBKTNV-1" vertex="1">
          <mxGeometry x="80" y="380" width="420" height="360" as="geometry" />
        </mxCell>
        <mxCell id="6UUb83-wT3MryLMKem0V-3" value="Apresentacao" style="shape=folder;fontStyle=1;spacingTop=0;tabWidth=120;tabHeight=20;tabPosition=left;html=1;whiteSpace=wrap;align=left;verticalAlign=top;labelPosition=center;verticalLabelPosition=middle;horizontal=1;spacing=0;spacingLeft=2;fillColor=none;rounded=0;" parent="WIyWlLk6GJQsqaUBKTNV-1" vertex="1">
          <mxGeometry x="540" y="380" width="240" height="300" as="geometry" />
        </mxCell>
        <mxCell id="MjpjkHj3X75M_pt7Rw3X-10" style="edgeStyle=orthogonalEdgeStyle;rounded=0;orthogonalLoop=1;jettySize=auto;html=1;exitX=0.5;exitY=1;exitDx=0;exitDy=0;entryX=0.5;entryY=0;entryDx=0;entryDy=0;endArrow=none;endFill=0;startArrow=open;startFill=0;" parent="WIyWlLk6GJQsqaUBKTNV-1" source="6UUb83-wT3MryLMKem0V-4" target="UXAAhCieMoi_uCVgCP8r-0" edge="1">
          <mxGeometry relative="1" as="geometry">
            <Array as="points">
              <mxPoint x="200" y="350" />
              <mxPoint x="290" y="350" />
            </Array>
          </mxGeometry>
        </mxCell>
        <mxCell id="6UUb83-wT3MryLMKem0V-4" value="&lt;b&gt;Usuario&lt;/b&gt;" style="swimlane;fontStyle=0;childLayout=stackLayout;horizontal=1;startSize=20;fillColor=none;horizontalStack=0;resizeParent=1;resizeParentMax=0;resizeLast=0;collapsible=1;marginBottom=0;whiteSpace=wrap;html=1;rounded=0;" parent="WIyWlLk6GJQsqaUBKTNV-1" vertex="1">
          <mxGeometry x="100" y="100" width="200" height="228" as="geometry">
            <mxRectangle x="100" y="140" width="160" height="20" as="alternateBounds" />
          </mxGeometry>
        </mxCell>
        <mxCell id="GBnsjsHgr-_13ScU9hir-3" value="&lt;div style=&quot;font-size: 10px;&quot;&gt;- idUsuario: int&lt;/div&gt;" style="text;strokeColor=none;fillColor=none;align=left;verticalAlign=middle;spacingLeft=2;spacingRight=2;overflow=hidden;rotatable=0;points=[[0,0.5],[1,0.5]];portConstraint=eastwest;whiteSpace=wrap;html=1;spacing=0;fontSize=10;rounded=0;" parent="6UUb83-wT3MryLMKem0V-4" vertex="1">
          <mxGeometry y="20" width="200" height="20" as="geometry" />
        </mxCell>
        <mxCell id="6UUb83-wT3MryLMKem0V-12" value="&lt;div style=&quot;font-size: 10px;&quot;&gt;- email: String&lt;/div&gt;" style="text;strokeColor=none;fillColor=none;align=left;verticalAlign=middle;spacingLeft=2;spacingRight=2;overflow=hidden;rotatable=0;points=[[0,0.5],[1,0.5]];portConstraint=eastwest;whiteSpace=wrap;html=1;spacing=0;fontSize=10;rounded=0;" parent="6UUb83-wT3MryLMKem0V-4" vertex="1">
          <mxGeometry y="40" width="200" height="20" as="geometry" />
        </mxCell>
        <mxCell id="6UUb83-wT3MryLMKem0V-19" value="&lt;div style=&quot;font-size: 10px;&quot;&gt;- senha: String&lt;/div&gt;" style="text;strokeColor=none;fillColor=none;align=left;verticalAlign=middle;spacingLeft=2;spacingRight=2;overflow=hidden;rotatable=0;points=[[0,0.5],[1,0.5]];portConstraint=eastwest;whiteSpace=wrap;html=1;spacing=0;fontSize=10;rounded=0;" parent="6UUb83-wT3MryLMKem0V-4" vertex="1">
          <mxGeometry y="60" width="200" height="20" as="geometry" />
        </mxCell>
        <mxCell id="6UUb83-wT3MryLMKem0V-31" value="&lt;div style=&quot;font-size: 10px;&quot;&gt;- nome: String&lt;/div&gt;" style="text;strokeColor=none;fillColor=none;align=left;verticalAlign=middle;spacingLeft=2;spacingRight=2;overflow=hidden;rotatable=0;points=[[0,0.5],[1,0.5]];portConstraint=eastwest;whiteSpace=wrap;html=1;spacing=0;fontSize=10;rounded=0;" parent="6UUb83-wT3MryLMKem0V-4" vertex="1">
          <mxGeometry y="80" width="200" height="20" as="geometry" />
        </mxCell>
        <mxCell id="6UUb83-wT3MryLMKem0V-16" value="" style="line;strokeWidth=1;fillColor=none;align=left;verticalAlign=middle;spacingTop=-1;spacingLeft=3;spacingRight=3;rotatable=0;labelPosition=right;points=[];portConstraint=eastwest;strokeColor=inherit;rounded=0;" parent="6UUb83-wT3MryLMKem0V-4" vertex="1">
          <mxGeometry y="100" width="200" height="8" as="geometry" />
        </mxCell>
        <mxCell id="GBnsjsHgr-_13ScU9hir-2" value="&lt;div style=&quot;font-size: 10px;&quot;&gt;+ toString() :&amp;nbsp; String&lt;br&gt;&lt;/div&gt;" style="text;strokeColor=none;fillColor=none;align=left;verticalAlign=middle;spacingLeft=2;spacingRight=2;overflow=hidden;rotatable=0;points=[[0,0.5],[1,0.5]];portConstraint=eastwest;whiteSpace=wrap;html=1;spacing=0;fontSize=10;rounded=0;" parent="6UUb83-wT3MryLMKem0V-4" vertex="1">
          <mxGeometry y="108" width="200" height="20" as="geometry" />
        </mxCell>
        <mxCell id="MjpjkHj3X75M_pt7Rw3X-27" value="&lt;div style=&quot;font-size: 10px;&quot;&gt;+ emailRecebido(email : Email) : booleano&lt;br&gt;&lt;/div&gt;" style="text;strokeColor=none;fillColor=none;align=left;verticalAlign=middle;spacingLeft=2;spacingRight=2;overflow=hidden;rotatable=0;points=[[0,0.5],[1,0.5]];portConstraint=eastwest;whiteSpace=wrap;html=1;spacing=0;fontSize=10;rounded=0;" parent="6UUb83-wT3MryLMKem0V-4" vertex="1">
          <mxGeometry y="128" width="200" height="20" as="geometry" />
        </mxCell>
        <mxCell id="MjpjkHj3X75M_pt7Rw3X-26" value="&lt;div style=&quot;font-size: 10px;&quot;&gt;+ emailEnviado(email : Email) : booleano&lt;br&gt;&lt;/div&gt;" style="text;strokeColor=none;fillColor=none;align=left;verticalAlign=middle;spacingLeft=2;spacingRight=2;overflow=hidden;rotatable=0;points=[[0,0.5],[1,0.5]];portConstraint=eastwest;whiteSpace=wrap;html=1;spacing=0;fontSize=10;rounded=0;" parent="6UUb83-wT3MryLMKem0V-4" vertex="1">
          <mxGeometry y="148" width="200" height="20" as="geometry" />
        </mxCell>
        <mxCell id="MjpjkHj3X75M_pt7Rw3X-29" value="&lt;div style=&quot;font-size: 10px;&quot;&gt;+ listarEmailsRecebidos() : String&lt;br&gt;&lt;/div&gt;" style="text;strokeColor=none;fillColor=none;align=left;verticalAlign=middle;spacingLeft=2;spacingRight=2;overflow=hidden;rotatable=0;points=[[0,0.5],[1,0.5]];portConstraint=eastwest;whiteSpace=wrap;html=1;spacing=0;fontSize=10;rounded=0;" parent="6UUb83-wT3MryLMKem0V-4" vertex="1">
          <mxGeometry y="168" width="200" height="20" as="geometry" />
        </mxCell>
        <mxCell id="MjpjkHj3X75M_pt7Rw3X-28" value="&lt;div style=&quot;font-size: 10px;&quot;&gt;+ listarEmailsEnviados() : String&lt;br&gt;&lt;/div&gt;" style="text;strokeColor=none;fillColor=none;align=left;verticalAlign=middle;spacingLeft=2;spacingRight=2;overflow=hidden;rotatable=0;points=[[0,0.5],[1,0.5]];portConstraint=eastwest;whiteSpace=wrap;html=1;spacing=0;fontSize=10;rounded=0;" parent="6UUb83-wT3MryLMKem0V-4" vertex="1">
          <mxGeometry y="188" width="200" height="20" as="geometry" />
        </mxCell>
        <mxCell id="MjpjkHj3X75M_pt7Rw3X-30" value="&lt;div style=&quot;font-size: 10px;&quot;&gt;+ verificarSenha(senha : String) : booleano&lt;br&gt;&lt;/div&gt;" style="text;strokeColor=none;fillColor=none;align=left;verticalAlign=middle;spacingLeft=2;spacingRight=2;overflow=hidden;rotatable=0;points=[[0,0.5],[1,0.5]];portConstraint=eastwest;whiteSpace=wrap;html=1;spacing=0;fontSize=10;rounded=0;" parent="6UUb83-wT3MryLMKem0V-4" vertex="1">
          <mxGeometry y="208" width="200" height="20" as="geometry" />
        </mxCell>
        <mxCell id="6UUb83-wT3MryLMKem0V-25" value="&lt;b&gt;Email&lt;/b&gt;" style="swimlane;fontStyle=0;childLayout=stackLayout;horizontal=1;startSize=20;fillColor=none;horizontalStack=0;resizeParent=1;resizeParentMax=0;resizeLast=0;collapsible=1;marginBottom=0;whiteSpace=wrap;html=1;rounded=0;" parent="WIyWlLk6GJQsqaUBKTNV-1" vertex="1">
          <mxGeometry x="400" y="100" width="260" height="228" as="geometry">
            <mxRectangle x="80" y="480" width="160" height="20" as="alternateBounds" />
          </mxGeometry>
        </mxCell>
        <mxCell id="MjpjkHj3X75M_pt7Rw3X-25" value="&lt;div style=&quot;font-size: 10px;&quot;&gt;- idEmail: int&lt;/div&gt;" style="text;strokeColor=none;fillColor=none;align=left;verticalAlign=middle;spacingLeft=2;spacingRight=2;overflow=hidden;rotatable=0;points=[[0,0.5],[1,0.5]];portConstraint=eastwest;whiteSpace=wrap;html=1;spacing=0;fontSize=10;rounded=0;" parent="6UUb83-wT3MryLMKem0V-25" vertex="1">
          <mxGeometry y="20" width="260" height="20" as="geometry" />
        </mxCell>
        <mxCell id="6UUb83-wT3MryLMKem0V-26" value="&lt;div style=&quot;font-size: 10px;&quot;&gt;- remetente: String&lt;/div&gt;" style="text;strokeColor=none;fillColor=none;align=left;verticalAlign=middle;spacingLeft=2;spacingRight=2;overflow=hidden;rotatable=0;points=[[0,0.5],[1,0.5]];portConstraint=eastwest;whiteSpace=wrap;html=1;spacing=0;fontSize=10;rounded=0;" parent="6UUb83-wT3MryLMKem0V-25" vertex="1">
          <mxGeometry y="40" width="260" height="20" as="geometry" />
        </mxCell>
        <mxCell id="6UUb83-wT3MryLMKem0V-27" value="&lt;div style=&quot;font-size: 10px;&quot;&gt;- destinatario: String&lt;/div&gt;" style="text;strokeColor=none;fillColor=none;align=left;verticalAlign=middle;spacingLeft=2;spacingRight=2;overflow=hidden;rotatable=0;points=[[0,0.5],[1,0.5]];portConstraint=eastwest;whiteSpace=wrap;html=1;spacing=0;fontSize=10;rounded=0;" parent="6UUb83-wT3MryLMKem0V-25" vertex="1">
          <mxGeometry y="60" width="260" height="20" as="geometry" />
        </mxCell>
        <mxCell id="6UUb83-wT3MryLMKem0V-32" value="&lt;div style=&quot;font-size: 10px;&quot;&gt;- mensagem: String&lt;/div&gt;" style="text;strokeColor=none;fillColor=none;align=left;verticalAlign=middle;spacingLeft=2;spacingRight=2;overflow=hidden;rotatable=0;points=[[0,0.5],[1,0.5]];portConstraint=eastwest;whiteSpace=wrap;html=1;spacing=0;fontSize=10;rounded=0;" parent="6UUb83-wT3MryLMKem0V-25" vertex="1">
          <mxGeometry y="80" width="260" height="20" as="geometry" />
        </mxCell>
        <mxCell id="6UUb83-wT3MryLMKem0V-33" value="&lt;div style=&quot;font-size: 10px;&quot;&gt;- dataHora: LocalDateTime&lt;/div&gt;" style="text;strokeColor=none;fillColor=none;align=left;verticalAlign=middle;spacingLeft=2;spacingRight=2;overflow=hidden;rotatable=0;points=[[0,0.5],[1,0.5]];portConstraint=eastwest;whiteSpace=wrap;html=1;spacing=0;fontSize=10;rounded=0;" parent="6UUb83-wT3MryLMKem0V-25" vertex="1">
          <mxGeometry y="100" width="260" height="20" as="geometry" />
        </mxCell>
        <mxCell id="UXAAhCieMoi_uCVgCP8r-7" value="&lt;div style=&quot;font-size: 10px;&quot;&gt;- preResposta: Email&lt;/div&gt;" style="text;strokeColor=none;fillColor=none;align=left;verticalAlign=middle;spacingLeft=2;spacingRight=2;overflow=hidden;rotatable=0;points=[[0,0.5],[1,0.5]];portConstraint=eastwest;whiteSpace=wrap;html=1;spacing=0;fontSize=10;rounded=0;" parent="6UUb83-wT3MryLMKem0V-25" vertex="1">
          <mxGeometry y="120" width="260" height="20" as="geometry" />
        </mxCell>
        <mxCell id="6UUb83-wT3MryLMKem0V-28" value="" style="line;strokeWidth=1;fillColor=none;align=left;verticalAlign=middle;spacingTop=-1;spacingLeft=3;spacingRight=3;rotatable=0;labelPosition=right;points=[];portConstraint=eastwest;strokeColor=inherit;rounded=0;" parent="6UUb83-wT3MryLMKem0V-25" vertex="1">
          <mxGeometry y="140" width="260" height="8" as="geometry" />
        </mxCell>
        <mxCell id="GBnsjsHgr-_13ScU9hir-1" value="&lt;div style=&quot;font-size: 10px;&quot;&gt;+ toString() :&amp;nbsp; String&lt;br&gt;&lt;/div&gt;" style="text;strokeColor=none;fillColor=none;align=left;verticalAlign=middle;spacingLeft=2;spacingRight=2;overflow=hidden;rotatable=0;points=[[0,0.5],[1,0.5]];portConstraint=eastwest;whiteSpace=wrap;html=1;spacing=0;fontSize=10;rounded=0;" parent="6UUb83-wT3MryLMKem0V-25" vertex="1">
          <mxGeometry y="148" width="260" height="20" as="geometry" />
        </mxCell>
        <mxCell id="MjpjkHj3X75M_pt7Rw3X-31" value="&lt;div style=&quot;font-size: 10px;&quot;&gt;+ toStringResumido() :&amp;nbsp; String&lt;br&gt;&lt;/div&gt;" style="text;strokeColor=none;fillColor=none;align=left;verticalAlign=middle;spacingLeft=2;spacingRight=2;overflow=hidden;rotatable=0;points=[[0,0.5],[1,0.5]];portConstraint=eastwest;whiteSpace=wrap;html=1;spacing=0;fontSize=10;rounded=0;" parent="6UUb83-wT3MryLMKem0V-25" vertex="1">
          <mxGeometry y="168" width="260" height="20" as="geometry" />
        </mxCell>
        <mxCell id="GBnsjsHgr-_13ScU9hir-0" value="&lt;div style=&quot;font-size: 10px;&quot;&gt;+ formatarDataTime(dataHora : LocalDateTime) :&amp;nbsp; String&lt;br&gt;&lt;/div&gt;" style="text;strokeColor=none;fillColor=none;align=left;verticalAlign=middle;spacingLeft=2;spacingRight=2;overflow=hidden;rotatable=0;points=[[0,0.5],[1,0.5]];portConstraint=eastwest;whiteSpace=wrap;html=1;spacing=0;fontSize=10;rounded=0;" parent="6UUb83-wT3MryLMKem0V-25" vertex="1">
          <mxGeometry y="188" width="260" height="20" as="geometry" />
        </mxCell>
        <mxCell id="3Sy7I0qABbOuNas900A4-2" value="&lt;div style=&quot;font-size: 10px;&quot;&gt;+ cifrar(cond : int) :&amp;nbsp; void&lt;br&gt;&lt;/div&gt;" style="text;strokeColor=none;fillColor=none;align=left;verticalAlign=middle;spacingLeft=2;spacingRight=2;overflow=hidden;rotatable=0;points=[[0,0.5],[1,0.5]];portConstraint=eastwest;whiteSpace=wrap;html=1;spacing=0;fontSize=10;rounded=0;" vertex="1" parent="6UUb83-wT3MryLMKem0V-25">
          <mxGeometry y="208" width="260" height="20" as="geometry" />
        </mxCell>
        <mxCell id="3Sy7I0qABbOuNas900A4-12" style="edgeStyle=orthogonalEdgeStyle;rounded=0;orthogonalLoop=1;jettySize=auto;html=1;exitX=0;exitY=0.5;exitDx=0;exitDy=0;entryX=1;entryY=0.5;entryDx=0;entryDy=0;endArrow=open;endFill=0;" edge="1" parent="WIyWlLk6GJQsqaUBKTNV-1" source="6UUb83-wT3MryLMKem0V-36" target="UXAAhCieMoi_uCVgCP8r-0">
          <mxGeometry relative="1" as="geometry" />
        </mxCell>
        <mxCell id="6UUb83-wT3MryLMKem0V-36" value="&lt;b&gt;Principal&lt;/b&gt;" style="swimlane;fontStyle=0;childLayout=stackLayout;horizontal=1;startSize=20;fillColor=none;horizontalStack=0;resizeParent=1;resizeParentMax=0;resizeLast=0;collapsible=1;marginBottom=0;whiteSpace=wrap;html=1;rounded=0;" parent="WIyWlLk6GJQsqaUBKTNV-1" vertex="1">
          <mxGeometry x="560" y="420" width="200" height="228" as="geometry">
            <mxRectangle x="560" y="420" width="160" height="20" as="alternateBounds" />
          </mxGeometry>
        </mxCell>
        <mxCell id="6UUb83-wT3MryLMKem0V-42" value="" style="line;strokeWidth=1;fillColor=none;align=left;verticalAlign=middle;spacingTop=-1;spacingLeft=3;spacingRight=3;rotatable=0;labelPosition=right;points=[];portConstraint=eastwest;strokeColor=inherit;rounded=0;" parent="6UUb83-wT3MryLMKem0V-36" vertex="1">
          <mxGeometry y="20" width="200" height="8" as="geometry" />
        </mxCell>
        <mxCell id="6UUb83-wT3MryLMKem0V-43" value="&lt;div style=&quot;font-size: 10px;&quot;&gt;+ limparTela() : void&lt;/div&gt;" style="text;strokeColor=none;fillColor=none;align=left;verticalAlign=middle;spacingLeft=2;spacingRight=2;overflow=hidden;rotatable=0;points=[[0,0.5],[1,0.5]];portConstraint=eastwest;whiteSpace=wrap;html=1;spacing=0;fontSize=10;rounded=0;" parent="6UUb83-wT3MryLMKem0V-36" vertex="1">
          <mxGeometry y="28" width="200" height="20" as="geometry" />
        </mxCell>
        <mxCell id="3Sy7I0qABbOuNas900A4-3" value="&lt;div style=&quot;font-size: 10px;&quot;&gt;+ imprimeCaixaEntrada(tipo : int) : void&lt;/div&gt;" style="text;strokeColor=none;fillColor=none;align=left;verticalAlign=middle;spacingLeft=2;spacingRight=2;overflow=hidden;rotatable=0;points=[[0,0.5],[1,0.5]];portConstraint=eastwest;whiteSpace=wrap;html=1;spacing=0;fontSize=10;rounded=0;" vertex="1" parent="6UUb83-wT3MryLMKem0V-36">
          <mxGeometry y="48" width="200" height="20" as="geometry" />
        </mxCell>
        <mxCell id="3Sy7I0qABbOuNas900A4-4" value="&lt;div style=&quot;font-size: 10px;&quot;&gt;+ imprimeOpção() : void&lt;/div&gt;" style="text;strokeColor=none;fillColor=none;align=left;verticalAlign=middle;spacingLeft=2;spacingRight=2;overflow=hidden;rotatable=0;points=[[0,0.5],[1,0.5]];portConstraint=eastwest;whiteSpace=wrap;html=1;spacing=0;fontSize=10;rounded=0;" vertex="1" parent="6UUb83-wT3MryLMKem0V-36">
          <mxGeometry y="68" width="200" height="20" as="geometry" />
        </mxCell>
        <mxCell id="3Sy7I0qABbOuNas900A4-5" value="&lt;div style=&quot;font-size: 10px;&quot;&gt;+ imprimeMenuPreLogado() : void&lt;/div&gt;" style="text;strokeColor=none;fillColor=none;align=left;verticalAlign=middle;spacingLeft=2;spacingRight=2;overflow=hidden;rotatable=0;points=[[0,0.5],[1,0.5]];portConstraint=eastwest;whiteSpace=wrap;html=1;spacing=0;fontSize=10;rounded=0;" vertex="1" parent="6UUb83-wT3MryLMKem0V-36">
          <mxGeometry y="88" width="200" height="20" as="geometry" />
        </mxCell>
        <mxCell id="3Sy7I0qABbOuNas900A4-6" value="&lt;div style=&quot;font-size: 10px;&quot;&gt;+ cadstrarUsuario() : boolean&lt;/div&gt;" style="text;strokeColor=none;fillColor=none;align=left;verticalAlign=middle;spacingLeft=2;spacingRight=2;overflow=hidden;rotatable=0;points=[[0,0.5],[1,0.5]];portConstraint=eastwest;whiteSpace=wrap;html=1;spacing=0;fontSize=10;rounded=0;" vertex="1" parent="6UUb83-wT3MryLMKem0V-36">
          <mxGeometry y="108" width="200" height="20" as="geometry" />
        </mxCell>
        <mxCell id="3Sy7I0qABbOuNas900A4-7" value="&lt;div style=&quot;font-size: 10px;&quot;&gt;+ logarUsuario() : boolean&lt;/div&gt;" style="text;strokeColor=none;fillColor=none;align=left;verticalAlign=middle;spacingLeft=2;spacingRight=2;overflow=hidden;rotatable=0;points=[[0,0.5],[1,0.5]];portConstraint=eastwest;whiteSpace=wrap;html=1;spacing=0;fontSize=10;rounded=0;" vertex="1" parent="6UUb83-wT3MryLMKem0V-36">
          <mxGeometry y="128" width="200" height="20" as="geometry" />
        </mxCell>
        <mxCell id="3Sy7I0qABbOuNas900A4-8" value="&lt;div style=&quot;font-size: 10px;&quot;&gt;+ enviarEmail() : boolean&lt;/div&gt;" style="text;strokeColor=none;fillColor=none;align=left;verticalAlign=middle;spacingLeft=2;spacingRight=2;overflow=hidden;rotatable=0;points=[[0,0.5],[1,0.5]];portConstraint=eastwest;whiteSpace=wrap;html=1;spacing=0;fontSize=10;rounded=0;" vertex="1" parent="6UUb83-wT3MryLMKem0V-36">
          <mxGeometry y="148" width="200" height="20" as="geometry" />
        </mxCell>
        <mxCell id="3Sy7I0qABbOuNas900A4-9" value="&lt;div style=&quot;font-size: 10px;&quot;&gt;+ excluirEmail() : boolean&lt;/div&gt;" style="text;strokeColor=none;fillColor=none;align=left;verticalAlign=middle;spacingLeft=2;spacingRight=2;overflow=hidden;rotatable=0;points=[[0,0.5],[1,0.5]];portConstraint=eastwest;whiteSpace=wrap;html=1;spacing=0;fontSize=10;rounded=0;" vertex="1" parent="6UUb83-wT3MryLMKem0V-36">
          <mxGeometry y="168" width="200" height="20" as="geometry" />
        </mxCell>
        <mxCell id="3Sy7I0qABbOuNas900A4-10" value="&lt;div style=&quot;font-size: 10px;&quot;&gt;+ abrirEmail() : boolean&lt;/div&gt;" style="text;strokeColor=none;fillColor=none;align=left;verticalAlign=middle;spacingLeft=2;spacingRight=2;overflow=hidden;rotatable=0;points=[[0,0.5],[1,0.5]];portConstraint=eastwest;whiteSpace=wrap;html=1;spacing=0;fontSize=10;rounded=0;" vertex="1" parent="6UUb83-wT3MryLMKem0V-36">
          <mxGeometry y="188" width="200" height="20" as="geometry" />
        </mxCell>
        <mxCell id="3Sy7I0qABbOuNas900A4-11" value="&lt;div style=&quot;font-size: 10px;&quot;&gt;+ responderEmail() : boolean&lt;/div&gt;" style="text;strokeColor=none;fillColor=none;align=left;verticalAlign=middle;spacingLeft=2;spacingRight=2;overflow=hidden;rotatable=0;points=[[0,0.5],[1,0.5]];portConstraint=eastwest;whiteSpace=wrap;html=1;spacing=0;fontSize=10;rounded=0;" vertex="1" parent="6UUb83-wT3MryLMKem0V-36">
          <mxGeometry y="208" width="200" height="20" as="geometry" />
        </mxCell>
        <mxCell id="UXAAhCieMoi_uCVgCP8r-0" value="&lt;b&gt;Sistema&lt;/b&gt;" style="swimlane;fontStyle=0;childLayout=stackLayout;horizontal=1;startSize=20;fillColor=none;horizontalStack=0;resizeParent=1;resizeParentMax=0;resizeLast=0;collapsible=1;marginBottom=0;whiteSpace=wrap;html=1;rounded=0;" parent="WIyWlLk6GJQsqaUBKTNV-1" vertex="1">
          <mxGeometry x="100" y="420" width="380" height="268" as="geometry">
            <mxRectangle x="100" y="420" width="160" height="20" as="alternateBounds" />
          </mxGeometry>
        </mxCell>
        <mxCell id="MjpjkHj3X75M_pt7Rw3X-23" value="&lt;div style=&quot;font-size: 10px;&quot;&gt;- numUsuarios: int&lt;/div&gt;" style="text;strokeColor=none;fillColor=none;align=left;verticalAlign=middle;spacingLeft=2;spacingRight=2;overflow=hidden;rotatable=0;points=[[0,0.5],[1,0.5]];portConstraint=eastwest;whiteSpace=wrap;html=1;spacing=0;fontSize=10;rounded=0;" parent="UXAAhCieMoi_uCVgCP8r-0" vertex="1">
          <mxGeometry y="20" width="380" height="20" as="geometry" />
        </mxCell>
        <mxCell id="MjpjkHj3X75M_pt7Rw3X-24" value="&lt;div style=&quot;font-size: 10px;&quot;&gt;- numEmails: int&lt;/div&gt;" style="text;strokeColor=none;fillColor=none;align=left;verticalAlign=middle;spacingLeft=2;spacingRight=2;overflow=hidden;rotatable=0;points=[[0,0.5],[1,0.5]];portConstraint=eastwest;whiteSpace=wrap;html=1;spacing=0;fontSize=10;rounded=0;" parent="UXAAhCieMoi_uCVgCP8r-0" vertex="1">
          <mxGeometry y="40" width="380" height="20" as="geometry" />
        </mxCell>
        <mxCell id="UXAAhCieMoi_uCVgCP8r-1" value="&lt;div style=&quot;font-size: 10px;&quot;&gt;- usuarioLogado: Usuario&lt;/div&gt;" style="text;strokeColor=none;fillColor=none;align=left;verticalAlign=middle;spacingLeft=2;spacingRight=2;overflow=hidden;rotatable=0;points=[[0,0.5],[1,0.5]];portConstraint=eastwest;whiteSpace=wrap;html=1;spacing=0;fontSize=10;rounded=0;" parent="UXAAhCieMoi_uCVgCP8r-0" vertex="1">
          <mxGeometry y="60" width="380" height="20" as="geometry" />
        </mxCell>
        <mxCell id="UXAAhCieMoi_uCVgCP8r-4" value="" style="line;strokeWidth=1;fillColor=none;align=left;verticalAlign=middle;spacingTop=-1;spacingLeft=3;spacingRight=3;rotatable=0;labelPosition=right;points=[];portConstraint=eastwest;strokeColor=inherit;rounded=0;" parent="UXAAhCieMoi_uCVgCP8r-0" vertex="1">
          <mxGeometry y="80" width="380" height="8" as="geometry" />
        </mxCell>
        <mxCell id="UXAAhCieMoi_uCVgCP8r-5" value="&lt;div style=&quot;font-size: 10px;&quot;&gt;+ cadastrarUsuario(usuario : Usuario) : booleano&lt;br&gt;&lt;/div&gt;" style="text;strokeColor=none;fillColor=none;align=left;verticalAlign=middle;spacingLeft=2;spacingRight=2;overflow=hidden;rotatable=0;points=[[0,0.5],[1,0.5]];portConstraint=eastwest;whiteSpace=wrap;html=1;spacing=0;fontSize=10;rounded=0;" parent="UXAAhCieMoi_uCVgCP8r-0" vertex="1">
          <mxGeometry y="88" width="380" height="20" as="geometry" />
        </mxCell>
        <mxCell id="MjpjkHj3X75M_pt7Rw3X-15" value="&lt;div style=&quot;font-size: 10px;&quot;&gt;+ logarUsuario(email : String, senha : String) : booleano&lt;br&gt;&lt;/div&gt;" style="text;strokeColor=none;fillColor=none;align=left;verticalAlign=middle;spacingLeft=2;spacingRight=2;overflow=hidden;rotatable=0;points=[[0,0.5],[1,0.5]];portConstraint=eastwest;whiteSpace=wrap;html=1;spacing=0;fontSize=10;rounded=0;" parent="UXAAhCieMoi_uCVgCP8r-0" vertex="1">
          <mxGeometry y="108" width="380" height="20" as="geometry" />
        </mxCell>
        <mxCell id="3Sy7I0qABbOuNas900A4-0" value="&lt;div style=&quot;font-size: 10px;&quot;&gt;+ deslogarUsuario() : booleano&lt;br&gt;&lt;/div&gt;" style="text;strokeColor=none;fillColor=none;align=left;verticalAlign=middle;spacingLeft=2;spacingRight=2;overflow=hidden;rotatable=0;points=[[0,0.5],[1,0.5]];portConstraint=eastwest;whiteSpace=wrap;html=1;spacing=0;fontSize=10;rounded=0;" vertex="1" parent="UXAAhCieMoi_uCVgCP8r-0">
          <mxGeometry y="128" width="380" height="20" as="geometry" />
        </mxCell>
        <mxCell id="MjpjkHj3X75M_pt7Rw3X-14" value="&lt;div style=&quot;font-size: 10px;&quot;&gt;+ verEmailsRecebidos() : String&lt;/div&gt;" style="text;strokeColor=none;fillColor=none;align=left;verticalAlign=middle;spacingLeft=2;spacingRight=2;overflow=hidden;rotatable=0;points=[[0,0.5],[1,0.5]];portConstraint=eastwest;whiteSpace=wrap;html=1;spacing=0;fontSize=10;rounded=0;" parent="UXAAhCieMoi_uCVgCP8r-0" vertex="1">
          <mxGeometry y="148" width="380" height="20" as="geometry" />
        </mxCell>
        <mxCell id="MjpjkHj3X75M_pt7Rw3X-17" value="&lt;div style=&quot;font-size: 10px;&quot;&gt;+ verEmailsEnviados() : String&lt;br&gt;&lt;/div&gt;" style="text;strokeColor=none;fillColor=none;align=left;verticalAlign=middle;spacingLeft=2;spacingRight=2;overflow=hidden;rotatable=0;points=[[0,0.5],[1,0.5]];portConstraint=eastwest;whiteSpace=wrap;html=1;spacing=0;fontSize=10;rounded=0;" parent="UXAAhCieMoi_uCVgCP8r-0" vertex="1">
          <mxGeometry y="168" width="380" height="20" as="geometry" />
        </mxCell>
        <mxCell id="3Sy7I0qABbOuNas900A4-1" value="&lt;div style=&quot;font-size: 10px;&quot;&gt;+ verEmailDetalhes(idEmail : int, tipo : int) : String&lt;br&gt;&lt;/div&gt;" style="text;strokeColor=none;fillColor=none;align=left;verticalAlign=middle;spacingLeft=2;spacingRight=2;overflow=hidden;rotatable=0;points=[[0,0.5],[1,0.5]];portConstraint=eastwest;whiteSpace=wrap;html=1;spacing=0;fontSize=10;rounded=0;" vertex="1" parent="UXAAhCieMoi_uCVgCP8r-0">
          <mxGeometry y="188" width="380" height="20" as="geometry" />
        </mxCell>
        <mxCell id="MjpjkHj3X75M_pt7Rw3X-20" value="&lt;div style=&quot;font-size: 10px;&quot;&gt;+ enviarEmail(email : Email) : booleano&lt;br&gt;&lt;/div&gt;" style="text;strokeColor=none;fillColor=none;align=left;verticalAlign=middle;spacingLeft=2;spacingRight=2;overflow=hidden;rotatable=0;points=[[0,0.5],[1,0.5]];portConstraint=eastwest;whiteSpace=wrap;html=1;spacing=0;fontSize=10;rounded=0;" parent="UXAAhCieMoi_uCVgCP8r-0" vertex="1">
          <mxGeometry y="208" width="380" height="20" as="geometry" />
        </mxCell>
        <mxCell id="MjpjkHj3X75M_pt7Rw3X-21" value="&lt;div style=&quot;font-size: 10px;&quot;&gt;+ excluirEmailRecebido(id : int) : booleano&lt;br&gt;&lt;/div&gt;" style="text;strokeColor=none;fillColor=none;align=left;verticalAlign=middle;spacingLeft=2;spacingRight=2;overflow=hidden;rotatable=0;points=[[0,0.5],[1,0.5]];portConstraint=eastwest;whiteSpace=wrap;html=1;spacing=0;fontSize=10;rounded=0;" parent="UXAAhCieMoi_uCVgCP8r-0" vertex="1">
          <mxGeometry y="228" width="380" height="20" as="geometry" />
        </mxCell>
        <mxCell id="MjpjkHj3X75M_pt7Rw3X-19" value="&lt;div style=&quot;font-size: 10px;&quot;&gt;+ responderEmail(id : int, email : Email) : booleano&lt;br&gt;&lt;/div&gt;" style="text;strokeColor=none;fillColor=none;align=left;verticalAlign=middle;spacingLeft=2;spacingRight=2;overflow=hidden;rotatable=0;points=[[0,0.5],[1,0.5]];portConstraint=eastwest;whiteSpace=wrap;html=1;spacing=0;fontSize=10;rounded=0;" parent="UXAAhCieMoi_uCVgCP8r-0" vertex="1">
          <mxGeometry y="248" width="380" height="20" as="geometry" />
        </mxCell>
        <mxCell id="MjpjkHj3X75M_pt7Rw3X-1" style="edgeStyle=orthogonalEdgeStyle;rounded=0;orthogonalLoop=1;jettySize=auto;html=1;exitX=0;exitY=0.5;exitDx=0;exitDy=0;entryX=1;entryY=0.5;entryDx=0;entryDy=0;startArrow=open;startFill=0;endArrow=none;endFill=0;" parent="WIyWlLk6GJQsqaUBKTNV-1" source="MjpjkHj3X75M_pt7Rw3X-25" target="GBnsjsHgr-_13ScU9hir-3" edge="1">
          <mxGeometry relative="1" as="geometry" />
        </mxCell>
        <mxCell id="MjpjkHj3X75M_pt7Rw3X-3" value="0..*" style="text;html=1;align=center;verticalAlign=middle;resizable=0;points=[];autosize=1;strokeColor=none;fillColor=none;fontSize=10;" parent="WIyWlLk6GJQsqaUBKTNV-1" vertex="1">
          <mxGeometry x="360" y="110" width="40" height="30" as="geometry" />
        </mxCell>
        <mxCell id="MjpjkHj3X75M_pt7Rw3X-6" style="edgeStyle=orthogonalEdgeStyle;rounded=0;orthogonalLoop=1;jettySize=auto;html=1;exitX=0;exitY=0.5;exitDx=0;exitDy=0;entryX=1;entryY=0.5;entryDx=0;entryDy=0;endArrow=none;endFill=0;startArrow=open;startFill=0;" parent="WIyWlLk6GJQsqaUBKTNV-1" source="6UUb83-wT3MryLMKem0V-27" target="6UUb83-wT3MryLMKem0V-19" edge="1">
          <mxGeometry relative="1" as="geometry" />
        </mxCell>
        <mxCell id="MjpjkHj3X75M_pt7Rw3X-7" value="0..*" style="text;html=1;align=center;verticalAlign=middle;resizable=0;points=[];autosize=1;strokeColor=none;fillColor=none;fontSize=10;" parent="WIyWlLk6GJQsqaUBKTNV-1" vertex="1">
          <mxGeometry x="360" y="149" width="40" height="30" as="geometry" />
        </mxCell>
        <mxCell id="MjpjkHj3X75M_pt7Rw3X-11" value="- listaUsuarios" style="text;html=1;align=center;verticalAlign=middle;resizable=0;points=[];autosize=1;strokeColor=none;fillColor=none;fontSize=10;" parent="WIyWlLk6GJQsqaUBKTNV-1" vertex="1">
          <mxGeometry x="190" y="328" width="90" height="30" as="geometry" />
        </mxCell>
        <mxCell id="MjpjkHj3X75M_pt7Rw3X-12" value="0..*" style="text;html=1;align=center;verticalAlign=middle;resizable=0;points=[];autosize=1;strokeColor=none;fillColor=none;fontSize=10;" parent="WIyWlLk6GJQsqaUBKTNV-1" vertex="1">
          <mxGeometry x="170" y="330" width="40" height="30" as="geometry" />
        </mxCell>
        <mxCell id="3Sy7I0qABbOuNas900A4-13" value="- listaUsuarios" style="text;html=1;align=center;verticalAlign=middle;resizable=0;points=[];autosize=1;strokeColor=none;fillColor=none;fontSize=10;" vertex="1" parent="WIyWlLk6GJQsqaUBKTNV-1">
          <mxGeometry x="470" y="510" width="90" height="30" as="geometry" />
        </mxCell>
        <mxCell id="3Sy7I0qABbOuNas900A4-14" value="&lt;div&gt;1&lt;/div&gt;&lt;div&gt;&lt;br&gt;&lt;/div&gt;" style="text;html=1;align=center;verticalAlign=middle;resizable=0;points=[];autosize=1;strokeColor=none;fillColor=none;fontSize=10;" vertex="1" parent="WIyWlLk6GJQsqaUBKTNV-1">
          <mxGeometry x="475" y="556" width="30" height="40" as="geometry" />
        </mxCell>
      </root>
    </mxGraphModel>
  </diagram>
</mxfile>
